<svg xmlns="http://www.w3.org/2000/svg" version="1.1" xmlns:xlink="http://www.w3.org/1999/xlink" xmlns:svgjs="http://svgjs.com/svgjs" width="1600" height="900" preserveAspectRatio="none" viewBox="0 0 1600 900"><g mask="url(&quot;#SvgjsMask1306&quot;)" fill="none"><rect width="1600" height="900" x="0" y="0" fill="url(#SvgjsLinearGradient1307)"></rect><path d="M432.2071221658175 1001.3926999415005L635.7243369495419 1001.3926999415005 432.20712216581745 797.8754851577761z" fill="rgba(0, 0, 0, 0.41)" class="triangle-float3"></path><path d="M495.151078411868 360.06957162195096L521.3286981620272 465.0622698012409 665.7289355558826 373.2994910863571z" fill="rgba(0, 0, 0, 0.41)" class="triangle-float2"></path><path d="M622.5680975348157 310.3546052995999L753.9767168858168 461.52292943752286 905.1450410237399 330.1143100865218 773.7364216727387 178.9459859485988z" fill="rgba(0, 0, 0, 0.41)" class="triangle-float3"></path><path d="M-70.27410305447944 349.7581734903706L114.61992098888348 528.3082570379552 293.17000453646796 343.4142329945922 108.27598049310507 164.8641494470077z" fill="rgba(0, 0, 0, 0.41)" class="triangle-float1"></path><path d="M309.89814891598746 377.07881155277244L410.7737827747503 170.2531119304042 103.07244929361923 276.2031776940096z" fill="rgba(0, 0, 0, 0.41)" class="triangle-float3"></path><path d="M812.938,1210.6C908.332,1212.127,986.927,1140.792,1030.691,1056.016C1070.844,978.235,1063.623,886.633,1019.079,811.28C975.379,737.356,898.749,690.963,812.938,687.656C720.611,684.098,623.049,713.976,577.31,794.256C531.912,873.938,561.763,969.421,606.932,1049.233C652.979,1130.597,719.46,1209.104,812.938,1210.6" fill="rgba(0, 0, 0, 0.41)" class="triangle-float1"></path><path d="M1495.7964246214024 677.6618511578707L1722.6208337344426 524.9811703218174 1509.6563662079602 416.470354279045z" fill="rgba(0, 0, 0, 0.41)" class="triangle-float1"></path><path d="M338.5,612.392C376.743,611.884,408.7,587.138,428.493,554.412C449.128,520.294,461.119,477.696,440.662,443.471C420.577,409.869,377.626,405.127,338.5,403.856C296.046,402.477,246.435,400.274,224.16,436.441C201.286,473.58,220.499,520.287,244.266,556.861C265.559,589.627,299.426,612.911,338.5,612.392" fill="rgba(0, 0, 0, 0.41)" class="triangle-float2"></path><path d="M540.54,762.106C615.449,759.861,689.844,734.821,729.644,671.32C771.895,603.907,775.247,518.479,736.937,448.751C697.196,376.42,622.946,322.625,540.54,327.138C463.766,331.342,417.202,402.151,378.173,468.398C338.267,536.135,292.689,614.474,330.725,683.278C369.467,753.358,460.5,764.505,540.54,762.106" fill="rgba(0, 0, 0, 0.41)" class="triangle-float2"></path><path d="M658.8581143069621 439.07606953914103L403.715324622395 470.40366493810274 435.0429200213567 725.5464546226699 690.1857097059238 694.2188592237081z" fill="rgba(0, 0, 0, 0.41)" class="triangle-float1"></path><path d="M789.694302426357 679.5648704974943L944.2381660519011 870.4106482486194 1135.0839438030262 715.8667846230752 980.5400801774821 525.0210068719502z" fill="rgba(0, 0, 0, 0.41)" class="triangle-float2"></path><path d="M1214.115,1077.015C1270.777,1077.13,1328.788,1062.018,1359.959,1014.701C1394.239,962.665,1399.328,895.483,1369.88,840.567C1338.823,782.652,1279.825,743.688,1214.115,742.727C1146.779,741.742,1081.959,776.48,1050.254,835.893C1020.107,892.386,1033.301,961.149,1069.293,1014.111C1100.999,1060.767,1157.705,1076.9,1214.115,1077.015" fill="rgba(0, 0, 0, 0.41)" class="triangle-float2"></path><path d="M851.913026645308 349.3281406593225L970.6118251583422 355.5488810929558 920.593536552275 174.39031310658797z" fill="rgba(0, 0, 0, 0.41)" class="triangle-float3"></path></g><defs><mask id="SvgjsMask1306"><rect width="1600" height="900" fill="#ffffff"></rect></mask><linearGradient x1="10.94%" y1="-19.44%" x2="89.06%" y2="119.44%" gradientUnits="userSpaceOnUse" id="SvgjsLinearGradient1307"><stop stop-color="rgba(70, 0, 121, 1)" offset="0"></stop><stop stop-color="rgba(152, 0, 158, 1)" offset="1"></stop></linearGradient><style>
            @keyframes float1 {
                0%{transform: translate(0, 0)}
                50%{transform: translate(-10px, 0)}
                100%{transform: translate(0, 0)}
            }

            .triangle-float1 {
                animation: float1 5s infinite;
            }

            @keyframes float2 {
                0%{transform: translate(0, 0)}
                50%{transform: translate(-5px, -5px)}
                100%{transform: translate(0, 0)}
            }

            .triangle-float2 {
                animation: float2 4s infinite;
            }

            @keyframes float3 {
                0%{transform: translate(0, 0)}
                50%{transform: translate(0, -10px)}
                100%{transform: translate(0, 0)}
            }

            .triangle-float3 {
                animation: float3 6s infinite;
            }
        </style></defs></svg>