<svg xmlns="http://www.w3.org/2000/svg" version="1.1" xmlns:xlink="http://www.w3.org/1999/xlink" xmlns:svgjs="http://svgjs.com/svgjs" width="1600" height="900" preserveAspectRatio="none" viewBox="0 0 1600 900"><g mask="url(&quot;#SvgjsMask1206&quot;)" fill="none"><rect width="1600" height="900" x="0" y="0" fill="url(#SvgjsLinearGradient1207)"></rect><path d="M1472.276909171872 345.2031803430075L1657.2108121477638 246.872079896757 1558.8797117015133 61.93817692086509 1373.9458087256214 160.26927736711562z" fill="rgba(255, 255, 255, 0.41)" class="triangle-float3"></path><path d="M436.669,878.516C479.119,877.73,518.818,855.907,539.4,818.773C559.401,782.688,554.099,739.302,533.711,703.435C513.052,667.091,478.47,638.616,436.669,638.05C393.989,637.472,356.743,664.033,334.966,700.744C312.691,738.295,305.454,784.804,327.135,822.701C348.945,860.823,392.757,879.329,436.669,878.516" fill="rgba(255, 255, 255, 0.41)" class="triangle-float3"></path><path d="M1157.7644374059005 326.20851513190763L1025.5001652638146 174.05587505557008 873.347525187477 306.320147197656 1005.6117973295629 458.47278727399356z" fill="rgba(255, 255, 255, 0.41)" class="triangle-float2"></path><path d="M921.3349581867059 377.974473364411L673.2959929481759 526.6897737575317 892.2364907555026 653.0951291031024z" fill="rgba(255, 255, 255, 0.41)" class="triangle-float1"></path><path d="M1065.935,473.024C1107.422,472.821,1140.967,441.33,1159.463,404.194C1176.006,370.981,1170.799,332.493,1151.804,300.619C1133.313,269.59,1102.053,247.742,1065.935,247.248C1028.975,246.742,994.975,266.553,975.898,298.213C956.164,330.963,953.3,371.125,970.808,405.117C989.928,442.239,1024.179,473.228,1065.935,473.024" fill="rgba(255, 255, 255, 0.41)" class="triangle-float1"></path><path d="M249.67159829539278 56.33953434560131L141.01735620982333 223.65239490299763 308.33021676721967 332.30663698856705 416.9844588527891 164.99377643117077z" fill="rgba(255, 255, 255, 0.41)" class="triangle-float2"></path><path d="M679.0197666867949 432.1971061453395L537.6526640611196 444.56512502059195 550.0206829363722 585.9322276462672 691.3877855620474 573.5642087710148z" fill="rgba(255, 255, 255, 0.41)" class="triangle-float1"></path><path d="M1433.7585300843352 107.91072943569996L1318.236727745988-69.97724654183467 1140.3487517684534 45.54455579651261 1255.8705541068007 223.43253177404725z" fill="rgba(255, 255, 255, 0.41)" class="triangle-float1"></path><path d="M375.7597442790775 392.67562695768595L381.90956578410197 221.2519594316155 248.30523524317925 289.3267660048814z" fill="rgba(255, 255, 255, 0.41)" class="triangle-float3"></path><path d="M378.583,625.836C465.857,626.465,564.231,613.401,606.07,536.807C646.921,462.023,602.842,374.066,554.413,303.952C513.69,244.994,450.129,211.411,378.583,207.46C298.018,203.01,210.945,215.765,165.556,282.476C115.062,356.69,109.383,457.293,156.706,533.568C201.966,606.518,292.735,625.217,378.583,625.836" fill="rgba(255, 255, 255, 0.41)" class="triangle-float2"></path><path d="M1331.111,765.895C1427.813,768.782,1537.836,759.608,1586.557,676.026C1635.487,592.085,1596.044,487.263,1539.648,408.145C1492.508,342.012,1412.283,320.29,1331.111,317.663C1243.475,314.827,1146.606,320.998,1097.809,393.847C1044.585,473.307,1049.974,580.499,1100.783,661.524C1148.778,738.062,1240.809,763.199,1331.111,765.895" fill="rgba(255, 255, 255, 0.41)" class="triangle-float2"></path><path d="M373.711,469.529C420.928,468.514,470.438,457.091,494.88,416.68C520.032,375.095,510.164,324,487.842,280.83C463.105,232.989,427.548,183.85,373.711,182.344C318.114,180.789,274.558,225.275,247.961,274.122C222.668,320.574,214.546,377.614,243.169,422.092C270.022,463.82,324.1,470.596,373.711,469.529" fill="rgba(255, 255, 255, 0.41)" class="triangle-float1"></path><path d="M733.903,1177.865C820.492,1175.203,883.991,1104.968,925.074,1028.699C963.674,957.04,976.334,872.331,936.811,801.177C896.209,728.08,817.511,685.743,733.903,684.528C648.044,683.28,564.499,721.378,520.514,795.125C475.496,870.604,478.428,964.356,521.224,1041.116C565.213,1120.016,643.612,1180.641,733.903,1177.865" fill="rgba(255, 255, 255, 0.41)" class="triangle-float1"></path></g><defs><mask id="SvgjsMask1206"><rect width="1600" height="900" fill="#ffffff"></rect></mask><linearGradient x1="89.06%" y1="119.44%" x2="10.94%" y2="-19.44%" gradientUnits="userSpaceOnUse" id="SvgjsLinearGradient1207"><stop stop-color="rgba(130, 189, 168, 1)" offset="0"></stop><stop stop-color="rgba(144, 238, 144, 1)" offset="1"></stop></linearGradient><style>
            @keyframes float1 {
                0%{transform: translate(0, 0)}
                50%{transform: translate(-10px, 0)}
                100%{transform: translate(0, 0)}
            }

            .triangle-float1 {
                animation: float1 5s infinite;
            }

            @keyframes float2 {
                0%{transform: translate(0, 0)}
                50%{transform: translate(-5px, -5px)}
                100%{transform: translate(0, 0)}
            }

            .triangle-float2 {
                animation: float2 4s infinite;
            }

            @keyframes float3 {
                0%{transform: translate(0, 0)}
                50%{transform: translate(0, -10px)}
                100%{transform: translate(0, 0)}
            }

            .triangle-float3 {
                animation: float3 6s infinite;
            }
        </style></defs></svg>